PathFileType	4	(X/Y/Z)	Patient4_TMGait_0pt4_03_left_23.trc.trc
DataRate	CameraRate	NumFrames	NumMarkers	Units	OrigDataRate	OrigDataStartFrame	OrigNumFrames
74.074074074074	74.074074074074	6	33	mm	74.074074074074	89	       141
Frame#	Time	Sacral			L.Shoulder			Chest			R.Shoulder			Neck			R.ASIS			L.ASIS			R.Thigh.Superior			R.Thigh.Lateral			R.Thigh.Inferior			R.Patella			L.Thigh.Superior			L.Thigh.Lateral			L.Thigh.Inferior			L.Patella			L.Shank.Superior			L.Shank.Lateral			L.Shank.Inferior			R.Shank.Superior			R.Shank.Lateral			R.Shank.Inferior			R.Heel			R.Midfoot.Superior			R.Midfoot.Lateral			R.Toe			L.Heel			L.Midfoot.Lateral			L.Midfoot.Superior			L.Toe			L.Elbow			L.Wrist			R.Elbow			R.Wrist			
		X1	Y1	Z1	X2	Y2	Z2	X3	Y3	Z3	X4	Y4	Z4	X5	Y5	Z5	X6	Y6	Z6	X7	Y7	Z7	X8	Y8	Z8	X9	Y9	Z9	X10	Y10	Z10	X11	Y11	Z11	X12	Y12	Z12	X13	Y13	Z13	X14	Y14	Z14	X15	Y15	Z15	X16	Y16	Z16	X17	Y17	Z17	X18	Y18	Z18	X19	Y19	Z19	X20	Y20	Z20	X21	Y21	Z21	X22	Y22	Z22	X23	Y23	Z23	X24	Y24	Z24	X25	Y25	Z25	X26	Y26	Z26	X27	Y27	Z27	X28	Y28	Z28	X29	Y29	Z29	X30	Y30	Z30	X31	Y31	Z31	X32	Y32	Z32	X33	Y33	Z33	

89	31.318000000000	815.651868582506	991.887225877322	484.554720980802	985.539381807973	1428.152559171301	314.120171047075	1083.289951346296	1362.757598206950	479.288941994458	989.455118197402	1429.098311714273	650.926922115483	957.007828891572	1488.428428476632	470.127487117340	1046.210896001557	933.718947343990	605.874000158912	1033.573521516557	960.947906439809	331.384982831867	1112.032651554229	746.483885534989	574.831039520494	1048.011756408359	629.006998518487	639.244194051836	1133.681858324397	586.299143319179	561.023043584944	1146.744747058743	495.902261148327	571.495897737060	1062.532687591649	735.181883097395	346.482067047924	960.147648402780	628.364268038811	280.497652628291	1040.458304270307	537.997600415978	332.516606578253	1029.512498897514	457.496175844799	328.776501660902	969.712190971025	398.756596327402	322.961357472832	835.978133614169	334.548382273477	278.857207764542	846.307250373029	204.405498851249	333.437646487805	1115.263740372316	404.761987609174	581.524139802804	1040.194668435713	304.102976274596	644.623820478864	1083.461754286395	206.722830531996	587.203130867363	950.195399250304	42.600723626746	555.651806502726	1116.897792638840	96.987815690354	601.873940651597	1027.938599546576	37.294476082980	637.024107745187	1235.719102939778	48.262695238825	640.732686932304	675.345909914024	95.770750317659	377.583035552221	738.856245080728	67.926095733839	294.915057329540	836.721683701420	106.771629440593	312.712420613251	941.865743992019	35.076062974027	280.248368458512	988.445072792557	1083.137358036904	178.473919115946	1102.764703000531	848.077498372202	148.261740451869	950.454559766719	1084.732907742350	775.252713711806	1080.491485978111	858.258839041577	789.995175009706	
90	31.331500000000	816.261913086369	992.275880129330	488.137738878748	984.441557082568	1429.033729189754	317.656989522921	1083.491084200470	1363.595645176355	482.062189849315	990.828586796400	1429.566930076623	654.413739152390	957.048990429053	1489.008637667430	473.984963711433	1047.424488881856	934.417188824399	608.613532342231	1033.815169132579	961.550438454919	334.322387220948	1111.480536706148	745.705026923110	578.357941515432	1045.975660016826	628.936624942322	641.818902092306	1131.376164463403	585.580119262232	563.729296891903	1143.586854087286	495.143292685948	573.833099612319	1068.407746433471	737.506777140612	348.898965204520	970.452196935027	628.355719092191	281.648523055137	1053.717876980485	539.598210277837	333.222774143395	1043.736632117125	457.736936715164	328.339217538833	981.518772003418	399.269492551185	322.799964565317	845.334969652689	340.329805160396	278.851905300157	850.856577753719	209.743077433352	332.644369977875	1111.639149960704	404.142836036806	583.354865734449	1036.186993897537	303.481834155281	645.775473891150	1078.873989942805	206.255760902557	587.928126086491	944.912699819001	42.577468812071	555.749755160843	1111.658248850608	96.915277297383	602.155077203190	1022.632092902778	37.257271542957	637.171775627506	1230.480928281240	47.947618508706	640.969615627317	675.612328172179	110.044096323039	376.742478083547	737.379293806518	77.811275969243	294.387434712868	837.192968822706	111.050966144244	311.747700972071	937.050261832639	34.106382062499	280.284965093586	983.450726822827	1083.605399362259	182.966648807837	1088.971210326498	844.569472232780	152.330814844395	958.920101639640	1084.954924654288	780.571919752460	1098.137677872011	864.138793429615	794.416850992768	
91	31.345000000000	816.694105973179	992.684163965384	491.672857337712	983.283211457178	1429.845479248764	320.997112326118	1083.670876451059	1364.346064470390	484.603183621179	992.292346520766	1430.021315900569	657.699233228036	957.125208454556	1489.558131760941	477.638249177444	1048.400408214045	935.086259866699	611.291967315198	1033.885808646877	962.096079373711	337.157408424948	1110.707442994839	744.986115720854	581.886773999826	1043.639421986796	628.866014015950	644.334560552290	1128.841947576444	584.892192296077	566.462939716315	1140.144847329524	494.424958910338	576.171283722184	1074.160079181586	740.143255347463	351.313174051326	980.973993918522	628.759453538761	282.592110199594	1067.064833571553	541.801363738750	333.939074465935	1058.222578919873	458.681283723506	328.021787391569	993.847061761683	400.323686903318	322.653463425425	855.490104557897	346.571802987958	278.747360039646	856.258303256398	215.768458414862	331.937827369050	1107.782798818721	403.573769885960	585.169628898774	1031.989574828348	302.894568910369	646.937661903267	1074.134708805483	205.814543914012	588.656866961404	939.561062941698	42.583060245847	555.834424449078	1106.375121477334	96.835600135941	602.510739164785	1017.253313387756	37.217499311557	637.315532787973	1225.180603232706	47.535290228613	641.227980720085	677.033175663585	125.284920437799	375.954718634256	736.900522315865	88.817728345940	293.860933663776	838.516323231879	116.151734775925	310.930012942600	932.779583462628	33.271584521168	280.301927268724	977.819897449067	1084.051071915343	187.299976215997	1075.226494285503	841.663826959708	156.675032406364	967.541916896242	1085.364317883921	785.701527452363	1115.966655402484	870.773648565885	798.276707902902	
92	31.358500000000	816.954157795275	993.094135219433	495.145826187095	982.082274806854	1430.569512256513	324.122487710301	1083.825866524043	1364.994898106590	486.903498107212	993.823210175201	1430.444666899862	660.766749379921	957.242873729027	1490.070417948611	481.061347358775	1049.159289687999	935.709221801401	613.878120129711	1033.771106765268	962.576878638792	339.862660343491	1109.765213371833	744.344568718264	585.289801713460	1041.141458661571	628.806633794478	646.741475875570	1126.163668794435	584.243245957555	569.116464319674	1136.518044006643	493.748001652853	578.420420852590	1079.671941181118	743.087546367669	353.716169110307	991.472888903346	629.623280206304	283.379229151133	1080.219352133673	544.626424011791	334.702376592577	1072.702764787124	460.354625018133	327.867273654138	1006.457035292435	401.935089163759	322.568333481400	866.222049997531	353.134945578168	278.610071479315	862.441880859081	222.307207214609	331.374162297346	1103.786246611338	403.053629048656	586.907444316319	1027.686666708073	302.361634806580	648.081616977392	1069.297837690633	205.400063258544	589.363077683252	934.157528975790	42.612570204285	555.918766800744	1101.064650073054	96.753372547960	602.913579089050	1011.825906352964	37.181585039641	637.459997893873	1219.837415040809	47.056754940878	641.492381654217	679.655169634012	140.913760562096	375.271714322015	737.565204466460	100.554438231382	293.368611679640	840.762508567833	121.955752471214	310.297835309711	929.371606027456	32.695547529146	280.267907315057	971.582209617648	1084.462378318048	191.489616285146	1061.606146261754	839.282382569389	161.225736544157	976.278835843428	1085.933898307119	790.589226519334	1133.864001767680	878.135928081837	801.528615337674	
93	31.372000000000	817.058508701163	993.502488626521	498.545421559693	980.850383064819	1431.207776965280	327.024780186368	1083.951868108974	1365.547637690740	488.960864509916	995.401226124003	1430.836327748498	663.606849544554	957.403815700924	1490.553927097304	484.237754814667	1049.730102649213	936.280906248785	616.334727297108	1033.459552706786	963.005559134219	342.413514914704	1108.683300796713	743.785956552114	588.448554929709	1038.579175939921	628.770736702581	649.001463561569	1123.384555046131	583.634892636468	571.594441390165	1132.761945639777	493.113193558827	580.504377265676	1084.835817298883	746.329357891305	356.096636485543	1001.706580762785	630.976049022659	284.066315380394	1092.923092173820	548.067894148087	335.526378830827	1086.920022802093	462.754874418691	327.883555730788	1019.112128601110	404.099859030010	322.565905163735	877.299079944826	359.844710418397	278.493138621909	869.344799388087	229.128299525411	330.977577665395	1099.701395071206	402.583630696744	588.518828651695	1023.326327193677	301.896974238258	649.176450305646	1064.399985031327	205.016897188286	590.025124719929	928.720999745707	42.659587269270	556.010386430533	1095.737932075338	96.670661144601	603.330564561814	1006.372383841099	37.153392335552	637.605968576117	1214.468516540392	46.547468875312	641.748818335655	683.505903631195	156.245626261341	374.727719659409	739.517542510720	112.503917921832	292.930491378107	844.026242406695	128.252984868081	309.853313566211	927.208427054039	32.511677122295	280.143842413675	964.800282892961	1084.845626644337	195.566600421059	1048.164002621060	837.353853727350	165.913168916757	985.091676734256	1086.648787895928	795.186018677771	1151.706776687579	886.196524077392	804.133810488154	
94	31.385500000000	817.032757365929	993.919387757400	501.864282351533	979.594248957808	1431.781332489120	329.705336081927	1084.046066804795	1366.026648523281	490.778705002737	997.012678414315	1431.210803370585	666.216723662446	957.605697542770	1491.029373307032	487.160488943652	1050.147662396485	936.808202702755	618.624866802383	1032.943177044405	963.412999974409	344.789778432384	1107.471662634334	743.307974612440	591.265855287426	1036.002805572176	628.770939592094	651.088438037061	1120.509322817023	583.065120052429	573.823819508729	1128.888325462901	492.523206970767	582.366838042688	1089.559270838704	749.849843388677	358.438646759177	1011.447424519642	632.821840386566	284.707381557656	1104.952651355816	552.093879512661	336.400165960428	1100.638933201851	465.854296986383	328.047246265001	1031.596226547440	406.791847294509	322.642262076288	888.500537163925	366.495380483446	278.430194646973	876.925870292388	235.954606475052	330.737722742558	1095.541411820146	402.167965339510	589.968649654069	1018.921135313092	301.508814490310	650.193766044637	1059.459567778809	204.673044681508	590.627393792964	923.268498382425	42.717469494555	556.111834424243	1090.400270285708	96.588300503935	603.730377407869	1000.910385290834	37.134044017021	637.750739854458	1209.086316165260	46.042268582075	641.985987946463	688.602250601457	170.541190664387	374.331067361845	742.898469492809	124.062217159869	292.546945668721	848.428437546684	134.751690339315	309.562046154288	926.716953181734	32.834597571644	279.884081169941	957.567818383659	1085.224787442961	199.570448203390	1034.938957064942	835.821438652045	170.672082588692	993.941118078896	1087.506274755575	799.446795158801	1169.368303062334	894.927499084910	806.061884311548	
